<svg version="1.1" xmlns="http://www.w3.org/2000/svg" xmlns:xlink="http://www.w3.org/1999/xlink" width="235.24095" height="234.11223" viewBox="0,0,235.24095,234.11223"><g transform="translate(-102.50315,-31.65224)"><g data-paper-data="{&quot;isPaintingLayer&quot;:true}" fill-rule="nonzero" stroke="none" stroke-width="0.5" stroke-linecap="butt" stroke-linejoin="miter" stroke-miterlimit="10" stroke-dasharray="" stroke-dashoffset="0" style="mix-blend-mode: normal"><path d="M290.51533,44.17877c1.80687,12.59402 3.72697,27.27705 12.57411,37.17524c5.44209,6.08862 13.32235,9.90264 20.49536,13.47141c0.55305,-0.76248 1.10201,-1.53019 1.64684,-2.30382c2.3623,-3.35428 4.732,-6.63442 5.97361,-10.61474c1.5638,-5.01318 1.96322,-10.42647 1.9612,-15.63628c-0.00126,-3.24269 0.77302,-7.65532 -0.74709,-10.69915c-0.51958,-1.04039 -1.46248,-1.80863 -2.17781,-2.72551c-0.63915,-0.81923 -1.08794,-1.81624 -1.88533,-2.48245c-0.89619,-0.74875 -2.05424,-1.11142 -3.08136,-1.66713c-10.77812,-5.98992 -22.68251,-9.71699 -34.88089,-11.6034c0.01403,2.36198 0.04971,4.71912 0.12135,7.08583zM300.18815,83.94722c-9.4525,-10.57547 -11.6313,-25.95116 -13.5496,-39.43243c-0.08441,-2.6599 -0.12505,-5.30613 -0.13826,-7.96088c-3.27024,-0.40049 -6.55513,-0.67304 -9.83884,-0.82565c-8.99726,-0.41816 -18.11901,0.00321 -27.1275,0.00321c-26.31618,0 -51.246,8.64652 -75.96661,16.89024c-13.83285,4.6127 -27.07081,10.38778 -40.10451,16.90263c-0.62774,0.31377 -1.25423,0.63504 -1.87807,0.96438c3.19371,1.44164 6.20181,3.35642 8.65865,5.89801c4.71621,4.87891 7.22269,12.49733 9.0326,18.84718c2.55124,9.04345 1.82228,18.46719 1.05023,27.73184c-0.30769,3.69234 -0.38997,7.16789 -1.56791,10.69487c-1.24246,3.72016 -3.26373,8.28897 -6.41418,11.19026c1.17595,0.31717 2.35772,0.61706 3.54307,0.90201c2.53261,-5.35812 5.6891,-10.59048 8.99022,-15.21641c4.38788,-6.14303 8.82531,-12.4087 14.13003,-17.8175c1.72028,-1.75404 3.74192,-3.18686 5.54428,-4.85645c3.27381,-3.03266 6.20841,-6.36038 9.78607,-9.06961c1.63986,-1.24182 3.34421,-2.42153 5.0971,-3.54287c-0.60888,-1.00163 -1.15735,-2.02316 -1.61827,-3.06708c-3.0258,-6.85304 -3.24617,-16.42242 -0.58974,-23.44052c1.13828,-3.00727 2.533,-4.24586 4.53127,-6.54204c4.15136,-4.70553 10.42963,-9.15972 16.52639,-11.06603c3.10267,-0.97013 7.1508,-0.76327 10.3763,-0.76301c3.33074,0.00026 7.32097,-0.06644 10.58089,0.75506c6.46583,1.62939 11.66306,6.68979 15.32209,11.98646c0.8316,1.2038 1.94047,2.2663 2.46385,3.6326c0.47168,1.23135 0.30032,2.62011 0.43381,3.93193c0.39999,3.93072 0.373,7.77906 0.37005,11.72225c12.92525,1.00405 25.79729,3.84267 37.57383,9.21024c5.93268,2.70404 12.10152,5.21569 17.76711,8.45755c3.76949,2.1569 7.25717,4.68663 10.48229,7.50704c2.6024,-3.14757 5.13047,-6.3204 7.582,-9.57399c-7.43809,-3.71918 -15.42222,-7.75843 -21.04863,-14.05326zM217.91608,114.38974c9.48168,-2.59179 18.73873,-10.58435 22.77138,-19.25994c0.86601,-1.86307 2.17669,-3.56897 2.63567,-5.57154c0.26454,-1.15421 0.36592,-2.33394 0.42751,-3.52c-2.12206,-0.10537 -4.24253,-0.16185 -6.3564,-0.17287c-6.42947,-0.03352 -13.5996,-0.82495 -19.90873,0.60854c-2.43864,0.55408 -4.69494,1.72438 -7.04522,2.57887c-5.22082,2.08239 -10.51325,4.52005 -15.50115,7.40057c1.67317,2.24219 3.52883,4.38548 5.14276,6.46105c3.47191,4.46501 9.39998,11.41552 15.60687,11.28666h1.37268c0,0 0.41065,-0.00001 0.85464,0.18865zM243.5872,71.04081c-0.08308,-0.98345 0.1451,-2.03318 -0.21205,-2.95324c-0.40945,-1.05478 -1.34345,-1.8211 -1.99918,-2.74318c-3.21662,-4.52316 -7.52878,-9.06833 -13.15924,-10.4641c-2.91466,-0.72254 -6.59187,-0.61787 -9.55587,-0.61762c-2.86544,0.00024 -6.54517,-0.26502 -9.29471,0.60967c-5.36249,1.70592 -11.05378,5.70773 -14.67946,9.8905c-1.54199,1.75158 -2.98222,3.06893 -3.81387,5.33961c-2.24666,6.13411 -2.14101,14.5191 0.50359,20.50878c0.39256,0.88911 0.85705,1.76149 1.37264,2.61865c5.23944,-3.04553 10.80398,-5.61969 16.30545,-7.81326c0.28645,-0.10418 7.41506,-2.70239 7.58289,-2.74044c6.61323,-1.49937 14.03923,-0.73747 20.77722,-0.70203c2.17165,0.01142 4.34974,0.0697 6.5293,0.17816c-0.0035,-3.74249 -0.04127,-7.37735 -0.35671,-11.11148zM207.58844,115.5024c-4.19618,-2.57679 -7.8093,-6.64707 -10.57695,-10.1974c-1.71382,-2.19849 -3.64819,-4.46419 -5.39584,-6.83444c-1.71248,1.09336 -3.37605,2.24483 -4.97395,3.45832c-3.44746,2.61811 -6.27329,5.84861 -9.43148,8.77525c-1.76558,1.63613 -3.75235,3.03318 -5.43718,4.75233c-5.15718,5.26224 -9.46174,11.36746 -13.72912,17.34179c-3.00808,4.20711 -5.90479,8.95959 -8.27084,13.83617c4.62509,0.99131 9.26708,1.79555 13.79394,2.5499c12.49783,2.08297 25.06207,2.07138 37.70993,2.07916c10.14757,0.00625 20.78615,0.67873 30.87251,-0.5988c3.74004,-0.47371 7.55896,-1.63839 11.24546,-2.4338c10.89107,-2.34715 22.51387,-5.454 32.5094,-10.48946c8.48338,-4.27369 17.27789,-10.3588 24.48988,-16.52132c3.7542,-3.20789 7.12367,-7.04355 10.64101,-10.5133c0.0414,-0.04897 0.08278,-0.09795 0.12414,-0.14693c-3.07889,-2.69958 -6.4051,-5.11712 -9.99636,-7.16016c-5.54465,-3.1543 -11.57333,-5.60627 -17.37146,-8.24897c-11.37186,-5.18313 -23.80845,-7.90949 -36.29181,-8.87484c-0.18499,2.02241 -0.38455,4.14788 -0.41997,4.29739c-0.52516,2.21672 -1.89852,4.14185 -2.86687,6.20388c-3.06842,6.53402 -7.67397,10.66972 -13.26854,15.05293c-3.14002,2.46013 -6.78059,4.91803 -10.62577,6.18188c-3.83193,1.25951 -8.23171,1.44568 -12.20783,1.35645c-1.73397,-0.03892 -6.80261,-0.04375 -8.37421,-0.60515c-1.36832,-0.48879 -2.4388,-1.58024 -3.65821,-2.37035c0,0 -1.61888,-1.07925 -0.53963,-2.69813c1.07925,-1.61888 2.69814,-0.53963 2.69814,-0.53963c0.93911,0.64889 1.74445,1.55687 2.81732,1.94667c1.04865,0.38101 2.22053,0.22987 3.33471,0.28854c1.09105,0.05745 2.15245,0.09816 3.1996,0.11201zM123.24593,69.54662c0.61527,-1.84581 2.46108,-1.23054 2.46108,-1.23054l1.2204,0.4068c2.70243,-1.58172 5.49441,-3.03276 8.27813,-4.42052c12.02077,-5.99268 24.3888,-11.12318 37.13084,-15.37213c18.13902,-6.04833 36.529,-12.49678 55.45579,-15.69881c7.24614,-1.2259 14.42329,-1.39125 21.74178,-1.39125c9.0824,0 18.27983,-0.42496 27.35082,0.0032c17.48129,0.82514 34.96101,4.94373 50.27988,13.45136c3.54035,2.00941 6.91571,4.73173 8.75263,8.57178c1.81009,3.78395 1.14199,8.37576 1.14047,12.40408c-0.00212,5.62403 -0.45975,11.44746 -2.15684,16.85462c-1.36447,4.34739 -3.90424,7.96871 -6.4878,11.63704c-3.77303,5.35723 -7.74165,10.43906 -11.8971,15.45512c5.85067,5.70077 10.76756,12.36826 14.88428,19.43266c3.04996,5.23382 6.27955,11.50002 6.34381,17.60268c0,11.78826 -0.18736,23.64977 -2.79742,35.2298c-1.5675,6.95455 -4.8409,13.72181 -7.65876,20.23198c-2.7724,6.40514 -5.43755,12.83059 -10.17314,18.07172c-6.9678,7.66839 -14.18611,15.46506 -21.88608,22.41119c-3.71368,3.35011 -7.88736,6.32127 -11.80382,9.43286c-6.25651,4.97075 -12.6573,10.23234 -20.60734,12.28456c-3.43164,0.88584 -7.84845,0.52019 -11.38115,0.74005c-3.52099,-0.00885 -7.19492,0.27468 -10.69704,-0.03706c-9.45475,-0.84163 -19.06851,-3.49838 -28.35089,-5.44263c-2.49061,-0.52168 -5.05527,-0.59278 -7.574,-0.95513c-6.37879,-0.91766 -12.82693,-3.08713 -19.0949,-4.60009c0,0 -1.3955,-0.33685 -1.49976,-1.63056c-0.81486,-0.34912 -1.6212,-0.7072 -2.41796,-1.07293c-6.71315,-3.08491 -14.72252,-4.89088 -20.78534,-9.27725c-4.08196,-2.95325 -7.79127,-8.33652 -10.50259,-12.47091c-6.44448,-9.82694 -11.62635,-20.28721 -15.66882,-31.31348c-0.09233,-7.23707 -0.67426,-14.87011 0.0229,-22.07416c0.47821,-4.94153 3.42901,-8.93708 4.99226,-13.63174c1.14416,-3.43607 1.93362,-7.03856 3.14103,-10.44395c0.39458,-1.11285 0.8247,-2.22919 1.28615,-3.34474c-2.27595,-0.55905 -4.53796,-1.17287 -6.77142,-1.85675c-0.31793,0.07556 -0.63671,0.13511 -0.95611,0.18008c-0.3768,1.29418 -1.85939,1.29418 -1.85939,1.29418h-0.68634c-5.29833,-0.1112 -10.22668,-4.16362 -14.3845,-7.25792c-0.3024,-0.22504 -6.10267,-4.88879 -6.29814,-5.09088c-0.45332,-0.46866 -0.87372,-0.96551 -1.27559,-1.47828c-0.09879,-0.0533 -0.19711,-0.10746 -0.29492,-0.16258c-2.73789,-1.543 -5.23934,-3.7411 -7.74057,-5.61702c0,0 -1.55652,-1.16739 -0.38913,-2.72392c0.30443,-0.4059 0.63531,-0.62657 0.95816,-0.73101c-0.44777,-0.64073 -0.85323,-1.34416 -1.19919,-2.16141c-1.1903,-2.81189 -0.84097,-6.02736 -0.83445,-8.98398c0.02146,-9.72083 0.43198,-18.41674 5.36812,-27.04797c3.30492,-7.25216 8.91917,-12.49065 15.35724,-16.73869c-0.17451,-0.36192 -0.23647,-0.83391 -0.03529,-1.43747zM137.97917,143.21779c3.69852,-1.82139 5.89102,-7.19003 7.08754,-10.78771c1.06985,-3.21684 1.10042,-6.41244 1.38167,-9.78749c0.72993,-8.75907 1.5402,-17.79781 -0.91507,-26.34358c-1.62428,-5.71709 -3.86178,-12.88113 -8.13959,-17.26245c-2.81522,-2.88335 -6.41137,-4.77534 -10.13097,-6.09263c-6.6739,4.09651 -12.61142,9.34951 -15.8757,16.55353c-4.64428,8.07914 -4.91987,16.17056 -4.93988,25.27993c-0.0052,2.36705 -0.42726,5.24778 0.53824,7.4882c0.90304,2.09548 3.06412,3.92659 4.4761,5.58669c1.32735,1.56058 2.44463,3.05703 3.64134,4.48422c1.37687,0.66065 2.79484,1.24443 4.10207,2.03133c2.09713,1.26239 3.93393,2.9509 6.10629,4.07891c3.87175,2.01042 7.97244,3.6333 12.19238,4.98255c0.15967,-0.06364 0.31825,-0.13401 0.47559,-0.21149zM313.8905,113.35058c-3.61996,3.57888 -7.09993,7.52236 -10.96842,10.82792c-7.45527,6.3704 -16.50968,12.62997 -25.28017,17.04475c-10.29366,5.18149 -22.21225,8.38912 -33.42629,10.81143c-3.79647,0.81914 -7.72605,2.0027 -11.5772,2.49049c-10.25335,1.29869 -21.04914,0.636 -31.36416,0.62965c-12.86316,-0.00792 -25.63582,-0.01359 -38.34697,-2.13211c-4.86093,-0.81028 -9.84338,-1.682 -14.79883,-2.7706c-0.52973,1.2514 -1.01832,2.50411 -1.45884,3.75119c-1.64505,4.65697 -2.55214,9.55748 -4.38482,14.16814c-0.78962,1.98653 -2.32576,3.63417 -3.02806,5.65322c-0.67319,1.93536 -0.53623,5.0834 -0.54621,7.02949c-0.02958,5.76809 0.06617,11.53909 -0.03655,17.30638c4.03712,10.48381 8.93205,20.46554 15.09457,29.87477c2.44722,3.73653 5.81127,8.78611 9.52326,11.44713c5.85514,4.19738 13.66251,5.93044 20.13338,8.8975c8.44196,3.87501 18.0105,6.88457 27.32393,7.18307c0.28198,-0.36331 0.74562,-0.66199 1.50794,-0.66199c1.48866,0 1.83832,1.13901 1.92045,1.67406c8.82929,1.87939 17.93885,4.36845 26.90689,5.16674c3.35129,0.29832 6.86665,0.01238 10.23621,0.02346c3.26409,-0.2049 7.41736,0.19524 10.58176,-0.63262c7.38418,-1.93183 13.28942,-6.93121 19.1019,-11.54917c3.85683,-3.06422 7.9742,-5.98662 11.63031,-9.28655c7.599,-6.85869 14.72184,-14.55761 21.60024,-22.12759c4.45938,-4.8761 6.89339,-11.01996 9.48392,-17.00506c2.72283,-6.29075 5.93315,-12.85336 7.44074,-19.57581c2.53265,-11.29325 2.69332,-22.84298 2.69332,-34.33577c0.08584,-6.35273 -4.35614,-13.67259 -7.73137,-18.93282c-3.48082,-5.42478 -7.49418,-10.58347 -12.10982,-15.11234c-0.04035,0.04769 -0.08071,0.09537 -0.1211,0.14305z" fill="#000000"/><path d="M314.03972,113.18065c4.61564,4.52887 8.63337,9.69304 12.11419,15.11782c3.37523,5.26023 7.82069,12.58665 7.73485,18.93938c0,11.49278 -0.1578,23.05493 -2.69045,34.34818c-1.50759,6.72245 -4.7183,13.29349 -7.44113,19.58424c-2.59054,5.98511 -5.02677,12.13719 -9.48615,17.0133c-6.87839,7.56998 -14.00905,15.28126 -21.60805,22.13995c-3.65612,3.29994 -7.77913,6.22731 -11.63596,9.29153c-5.81248,4.61796 -11.72769,9.62252 -19.11186,11.55435c-3.1644,0.82786 -7.32273,0.42912 -10.58682,0.63401c-3.36956,-0.01108 -6.89013,0.27555 -10.24142,-0.02276c-8.96804,-0.7983 -18.09198,-3.28913 -26.92127,-5.16852c-0.08212,-0.53505 -0.43298,-1.67448 -1.92165,-1.67448c-0.76232,0 -1.22656,0.29846 -1.50854,0.66178c-9.31343,-0.2985 -18.89383,-3.31511 -27.33578,-7.19012c-6.47088,-2.96706 -14.28442,-4.70694 -20.13957,-8.90432c-3.71199,-2.66102 -7.07927,-7.71602 -9.52649,-11.45255c-6.16252,-9.40922 -11.0612,-19.4039 -15.09832,-29.88771c0.10272,-5.76729 0.00684,-11.54515 0.03642,-17.31324c0.00998,-1.94609 -0.1267,-5.09691 0.54649,-7.03227c0.7023,-2.01905 2.23886,-3.6691 3.02848,-5.65563c1.83268,-4.61066 2.74144,-9.51696 4.38649,-14.17393c0.44053,-1.24708 0.92972,-2.50132 1.45945,-3.75271c4.95545,1.08861 9.93852,1.95891 14.79945,2.76919c12.71114,2.11852 25.49046,2.11433 38.35362,2.12225c10.31502,0.00635 21.13512,0.65679 31.38848,-0.6419c3.85116,-0.48779 7.79349,-1.67064 11.58996,-2.48978c11.21403,-2.42231 23.15004,-5.62099 33.44371,-10.80248c8.77049,-4.41477 17.82717,-10.67214 25.28244,-17.04253c3.86849,-3.30556 7.29213,-7.19533 10.91208,-10.77422c0.04039,-0.04768 0.13701,-0.14914 0.17736,-0.19682z" data-paper-data="{&quot;noHover&quot;:false,&quot;origItem&quot;:[&quot;Path&quot;,{&quot;applyMatrix&quot;:true,&quot;segments&quot;:[[[624.77119,195.64899],[0.10378,-0.12253],[-9.30267,9.19713]],[[596.58421,223.47489],[9.94137,-8.49472],[-19.15878,16.37083]],[[531.6185,267.27698],[22.53866,-11.34522],[-26.45297,13.31555]],[[445.71864,295.06052],[28.81816,-6.22492],[-9.75628,2.10505]],[[415.9672,301.46065],[9.89681,-1.25352],[-26.34938,3.3374]],[[335.36663,303.07874],[26.50784,0.01632],[-33.05611,-0.02035]],[[236.82147,297.59958],[32.66547,5.44424],[-12.49176,-2.08229]],[[198.791,290.4796],[12.73466,2.79754],[-1.36132,3.21587]],[[195.04201,300.11953],[1.13207,-3.20478],[-4.22749,11.96763]],[[183.77377,336.52924],[4.70967,-11.84861],[-2.02919,5.10504]],[[175.99217,351.05705],[1.80479,-5.18861],[-1.72999,4.97355]],[[174.58851,369.12163],[0.02565,-5.00111],[-0.07602,14.82302]],[[174.49457,413.59607],[0.26399,-14.82095],[10.37471,26.94161]],[[213.28505,490.36914],[-15.83662,-24.18011],[6.28893,9.60224]],[[237.7582,519.78631],[-9.53918,-6.83837],[15.04671,10.78656]],[[289.49756,542.65139],[-16.62905,-7.62485],[21.69438,9.95813]],[[359.71541,561.11065],[-23.93394,-0.7671],[0.72465,-0.93365]],[[363.59055,559.40945],[-1.95903,0],[3.82561,0]],[[368.52576,563.71151],[-0.21105,-1.375],[22.68977,4.8297]],[[437.67187,576.98916],[-23.04633,-2.05149],[8.61226,0.76663]],[[463.97719,577.04946],[-8.65919,-0.02847],[8.38817,-0.52654]],[[491.1705,575.42372],[-8.13197,2.12746],[18.97607,-4.96447]],[[540.25913,545.74432],[-14.93708,11.86738],[9.91141,-7.87453]],[[570.14706,521.87945],[-9.3956,8.48027],[19.52812,-17.62567]],[[625.65599,465.01532],[-17.67629,19.45356],[11.45985,-12.53074]],[[650.02806,421.31521],[-6.65725,15.3807],[6.99722,-16.16615]],[[669.1495,371.00872],[-3.87425,17.27555],[6.50846,-29.02171]],[[676.07087,282.77165],[0,29.5345],[0.2206,-16.32543]],[[656.20257,234.11753],[8.67377,13.51789],[-8.94511,-13.94076]],[[625.08239,195.28139],[11.86142,11.63844],[-0.10369,0.12254]]],&quot;closed&quot;:true}]}" fill="#ffddaf"/><path d="M290.37074,37.06173c12.19838,1.88641 24.14986,5.61395 34.92798,11.60387c1.02712,0.55571 2.18957,0.92238 3.08576,1.67113c0.79739,0.66621 1.24959,1.66734 1.88873,2.48658c0.71533,0.91688 1.66129,1.69018 2.18087,2.73057c1.52011,3.04382 0.75002,7.4746 0.75128,10.71728c0.00202,5.20981 -0.4063,10.64729 -1.9701,15.66047c-1.24161,3.98032 -3.62385,7.27047 -5.98615,10.62474c-0.54483,0.77362 -1.09665,1.54263 -1.6497,2.30511c-7.17301,-3.56878 -15.08717,-7.38505 -20.52926,-13.47367c-8.84714,-9.89819 -10.77521,-24.64279 -12.58207,-37.23681c-0.07164,-2.36671 -0.1033,-4.72728 -0.11733,-7.08926z" data-paper-data="{&quot;noHover&quot;:false,&quot;origItem&quot;:[&quot;Path&quot;,{&quot;applyMatrix&quot;:true,&quot;segments&quot;:[[[564.70097,17.88923],[-0.18412,-6.08206],[4.64334,32.36449]],[[597.0143,113.42325],[-22.73564,-25.43666],[13.98526,15.64672]],[[649.68386,148.04248],[-18.43341,-9.17114],[1.42126,-1.95945]],[[653.91598,142.12206],[-1.40013,1.98808],[6.0707,-8.61991]],[[669.26713,114.84399],[-3.19073,10.22876],[4.01869,-12.88303]],[[674.30709,74.66142],[0.00519,13.38833],[-0.00323,-8.33315]],[[672.38719,47.16643],[3.90644,7.82211],[-1.33523,-2.67361]],[[666.79059,40.16233],[1.83828,2.35622],[-1.64251,-2.1053]],[[661.94561,33.78286],[2.04916,1.71204],[-2.30306,-1.92416]],[[654.02706,29.49861],[2.63952,1.42809],[-27.69794,-15.39306]],[[564.38912,-0.32014],[31.34776,4.84776],[0.03605,6.06989]]],&quot;closed&quot;:true}]}" fill="#ff0000"/><path d="M243.9811,82.16375c-2.17956,-0.10846 -4.35868,-0.16387 -6.53032,-0.17529c-6.73799,-0.03544 -14.20006,-0.77276 -20.81329,0.72661c-0.16783,0.03805 -7.31767,2.63003 -7.60412,2.73421c-5.50147,2.19357 -11.07502,4.75968 -16.31445,7.80521c-0.51558,-0.85716 -0.98228,-1.73252 -1.37484,-2.62163c-2.6446,-5.98968 -2.75645,-14.40174 -0.50979,-20.53584c0.83165,-2.27068 2.27439,-3.59732 3.81638,-5.34891c3.62569,-4.18277 9.33903,-8.20617 14.70152,-9.91209c2.74955,-0.87469 6.44731,-0.61181 9.31275,-0.61205c2.964,-0.00025 6.65753,-0.09935 9.57219,0.62319c5.63046,1.39577 9.95907,5.9616 13.17569,10.48476c0.65573,0.92208 1.59097,1.69284 2.00041,2.74762c0.35715,0.92006 0.12962,1.97397 0.21269,2.95742c0.31544,3.73413 0.35167,7.38431 0.35518,11.1268z" data-paper-data="{&quot;noHover&quot;:false,&quot;origItem&quot;:[&quot;Path&quot;,{&quot;applyMatrix&quot;:true,&quot;segments&quot;:[[[444.10368,86.92012],[0.81062,9.59607],[-0.21349,-2.52729]],[[443.55876,79.33078],[0.91781,2.3644],[-1.0522,-2.71059]],[[438.42119,72.28129],[1.68511,2.36957],[-8.26616,-11.62375]],[[404.60419,45.39034],[14.46932,3.58689],[-7.49018,-1.85679]],[[380.04724,43.80315],[7.61697,-0.00064],[-7.36369,0.00062]],[[356.1614,45.36991],[7.06586,-2.2478],[-13.78068,4.38393]],[[318.43768,70.78679],[9.31739,-10.749],[-3.96265,4.50126]],[[308.63668,84.50867],[2.1372,-5.83526],[-5.77353,15.76362]],[[309.93083,137.21274],[-6.79617,-15.39246],[1.00883,2.28486]],[[313.45827,143.94221],[-1.32497,-2.20276],[13.46446,-7.82649]],[[355.36051,123.86346],[-14.13784,5.63711],[0.73613,-0.26773]],[[374.84725,116.82099],[-0.4313,0.09778],[16.99488,-3.85312]],[[428.24117,115.01688],[-17.31549,-0.09107],[5.58076,0.02935]],[[445.02037,115.47473],[-5.6011,-0.27873],[-0.00901,-9.61755]]],&quot;closed&quot;:true}]}" fill="#ff0000"/><path d="M217.05526,114.23951l-1.3762,-0.00073c-6.20688,0.12886 -12.16372,-6.85352 -15.63564,-11.31853c-1.61393,-2.07557 -3.46963,-4.23027 -5.1428,-6.47246c4.9879,-2.88052 10.2943,-5.34278 15.51512,-7.42517c2.35028,-0.85449 4.62583,-2.03315 7.06446,-2.58723c6.30913,-1.43349 13.51519,-0.62751 19.94466,-0.59399c2.11388,0.01102 4.23749,0.07218 6.35955,0.17754c-0.06159,1.18606 -0.16107,2.36957 -0.42561,3.52379c-0.45898,2.00258 -1.7674,3.71535 -2.63341,5.57841c-4.03265,8.67559 -13.33148,16.71554 -22.81316,19.30733c-0.44398,-0.18866 -0.85697,-0.18896 -0.85697,-0.18896z" data-paper-data="{&quot;noHover&quot;:false,&quot;origItem&quot;:[&quot;Path&quot;,{&quot;applyMatrix&quot;:true,&quot;segments&quot;:[[[378.13327,198.31946],[-1.14096,-0.48482],[24.36631,-6.66046]],[[436.65185,148.82469],[-10.36322,22.29479],[2.22548,-4.78776]],[[443.42507,134.50679],[-1.1795,5.14628],[0.67982,-2.96614]],[[444.52369,125.46098],[-0.15827,3.04799],[-5.45334,-0.27077]],[[428.18881,125.01674],[5.4323,0.02832],[-16.52264,-0.08614]],[[377.02677,126.58058],[16.21339,-3.68382],[-6.26688,1.42389]],[[358.92177,133.20784],[6.03981,-2.19589],[-13.41662,5.35137]],[[319.08644,152.22605],[12.81805,-7.40244],[4.29976,5.76206]],[[332.30247,168.82985],[-4.14752,-5.33386],[8.92223,11.47432]],[[372.40945,197.83465],[-15.95062,0.33113],[0,0]],[375.93701,197.83465]],&quot;closed&quot;:true}]}" fill="#ff0000"/><path d="M137.51492,143.46651c-4.21994,-1.34925 -8.33384,-2.97049 -12.20559,-4.98091c-2.17236,-1.12802 -4.01809,-2.818 -6.11522,-4.0804c-1.30723,-0.7869 -2.73132,-1.37302 -4.1082,-2.03367c-1.19671,-1.42719 -2.32096,-2.92797 -3.64831,-4.48855c-1.41199,-1.66009 -3.58087,-3.49935 -4.4839,-5.59482c-0.96549,-2.24043 -0.54875,-5.13171 -0.54355,-7.49877c0.02002,-9.10937 0.30789,-17.24283 4.95216,-25.32198c3.26429,-7.20401 9.22709,-12.46587 15.90099,-16.56238c3.7196,1.3173 7.32853,3.21163 10.14375,6.09498c4.27781,4.38132 6.53485,11.5611 8.15913,17.27819c2.45528,8.54577 1.64348,17.62838 0.91356,26.38744c-0.28125,3.37506 -0.31974,6.57868 -1.38959,9.79551c-1.19652,3.59768 -3.40059,8.97232 -7.09911,10.79371c-0.15734,0.07748 -0.31644,0.14802 -0.47611,0.21166z" data-paper-data="{&quot;noHover&quot;:false,&quot;origItem&quot;:[&quot;Path&quot;,{&quot;applyMatrix&quot;:true,&quot;segments&quot;:[[[172.70904,272.40263],[-0.40434,0.19912],[9.50456,-4.68066]],[[190.9228,244.68006],[-3.07485,9.24541],[2.74935,-8.26672]],[[194.47346,219.52787],[-0.72278,8.67332],[1.87578,-22.50931]],[[192.12188,151.82936],[6.30964,21.96116],[-4.17411,-14.69195]],[[171.20454,107.4678],[10.99324,11.25924],[-7.23464,-7.4097]],[[145.16967,91.81078],[9.55874,3.38523],[-17.15077,10.52733]],[[104.37181,134.35051],[8.38865,-18.51309],[-11.935,20.76203]],[[91.67716,199.31561],[0.05143,-23.40953],[-0.01336,6.08293]],[[93.06034,218.55902],[-2.48115,-5.75751],[2.32064,5.38503]],[[104.56315,232.91585],[-3.62856,-4.26616],[3.41106,4.01044]],[[113.92077,244.43953],[-3.07535,-3.66763],[3.53833,1.69777]],[[124.46239,249.6597],[-3.35935,-2.0222],[5.38927,3.24414]],[[140.15452,260.14182],[-5.58261,-2.8988],[9.94973,5.16645]],[[171.48686,272.94613],[-10.84454,-3.46734],[0.41034,-0.16353]]],&quot;closed&quot;:true}]}" fill="#ff1919"/><path d="M321.27558,98.0035c-2.45153,3.2536 -4.9802,6.43082 -7.5826,9.5784c-3.22512,-2.82041 -6.78962,-5.36229 -10.55911,-7.51919c-5.66559,-3.24186 -11.83472,-5.7494 -17.7674,-8.45344c-11.77654,-5.36758 -24.64598,-8.19157 -37.57123,-9.19563c0.00295,-3.94319 0.03802,-7.77873 -0.36197,-11.70945c-0.13349,-1.31182 0.04069,-2.69789 -0.43098,-3.92923c-0.52337,-1.3663 -1.62825,-2.42578 -2.45986,-3.62958c-3.65903,-5.29667 -8.83763,-10.35074 -15.30346,-11.98013c-3.25993,-0.8215 -7.24002,-0.75539 -10.57076,-0.75566c-3.2255,-0.00026 -7.26477,-0.20996 -10.36743,0.76017c-6.09676,1.90631 -12.36117,6.34981 -16.51253,11.05535c-1.99827,2.29617 -3.3891,3.52907 -4.52738,6.53634c-2.65643,7.0181 -2.43115,16.56695 0.59465,23.41999c0.46092,1.04393 1.00912,2.06219 1.618,3.06382c-1.75289,1.12134 -3.45764,2.29846 -5.0975,3.54028c-3.57765,2.70923 -6.51354,6.0321 -9.78735,9.06475c-1.80236,1.66959 -3.8246,3.10071 -5.54488,4.85474c-5.30472,5.4088 -9.74448,11.66949 -14.13236,17.81252c-3.30112,4.62592 -6.45947,9.85526 -8.99209,15.21338c-1.18535,-0.28495 -2.43195,-0.54178 -3.6079,-0.85895c3.15044,-2.90128 5.17039,-7.47233 6.41285,-11.19249c1.17794,-3.52698 1.25845,-7.00618 1.56614,-10.69852c0.77205,-9.26465 1.49798,-18.70129 -1.05326,-27.74473c-1.80991,-6.34986 -4.31594,-13.97694 -9.03215,-18.85585c-2.45684,-2.54159 -5.4646,-4.45811 -8.65831,-5.89975c0.62384,-0.32935 1.25045,-0.65114 1.87819,-0.96491c13.0337,-6.51485 26.27803,-12.30403 40.11088,-16.91673c24.72061,-8.24372 49.69711,-16.90337 76.01329,-16.90337c9.00849,0 18.14141,-0.41421 27.13867,0.00395c3.28371,0.15261 6.57125,0.42783 9.84149,0.82832c0.01322,2.65475 0.05583,5.30335 0.14024,7.96325c1.9183,13.48127 4.10496,28.87711 13.55746,39.45258c5.62641,6.29484 13.61059,10.34062 21.04868,14.05979z" data-paper-data="{&quot;noHover&quot;:false,&quot;origItem&quot;:[&quot;Path&quot;,{&quot;applyMatrix&quot;:true,&quot;segments&quot;:[[[589.55847,120.08737],[14.45891,16.17665],[-24.29132,-27.17716]],[[554.73832,18.75273],[4.92969,34.64457],[-0.21692,-6.83549]],[[554.38301,-1.70536],[0.03396,6.82226],[-8.40395,-1.0292]],[[529.09888,-3.82714],[8.43858,0.3922],[-23.12143,-1.0746]],[[459.38583,-3.8189],[23.15029,0],[-67.6281,0]],[[264.16459,39.58614],[63.52776,-21.18495],[-35.54808,11.85384]],[[161.10282,83.02301],[33.49439,-16.74205],[-1.61317,0.80634]],[[156.2765,85.5013],[1.60315,-0.84636],[8.2073,3.70476]],[[178.52774,100.65819],[-6.31366,-6.53145],[12.11986,12.53795]],[[201.74,149.09224],[-4.65116,-16.31805],[6.55625,23.24011]],[[204.43891,220.35833],[1.98405,-23.80857],[-0.79072,9.48868]],[[200.40963,247.84234],[3.02711,-9.06375],[-3.19291,9.56018]],[[183.92628,276.59938],[8.09611,-7.45579],[3.02199,0.81508]],[[193.03138,278.9174],[-3.04615,-0.73227],[6.50837,-13.76946]],[[216.1347,239.81382],[-8.48331,11.88784],[11.27611,-15.78655]],[[252.44647,194.02586],[-13.63224,13.8997],[4.42083,-4.50757]],[[266.69432,181.54562],[-4.63174,4.29056],[8.41314,-7.79341]],[[291.84285,158.23825],[-9.19397,6.96226],[4.21418,-3.19125]],[[304.94152,149.13369],[-4.50463,2.88165],[-1.56471,-2.574]],[[300.78284,141.25182],[1.18449,2.68271],[-7.77579,-17.61116]],[[299.26731,81.01367],[-6.82658,18.03532],[2.9252,-7.72816]],[[310.91191,64.20175],[-5.1352,5.90078],[10.66829,-12.09242]],[[353.38191,35.76395],[-15.66764,4.89889],[7.97333,-2.49306]],[[380.04724,33.80315],[-8.28898,-0.00066],[8.55943,0.00068]],[[407.23833,35.74351],[-8.37747,-2.11112],[16.61608,4.18725]],[[446.6135,66.54667],[-9.40309,-13.61154],[2.13708,3.09356]],[[452.94517,75.88182],[-1.34498,-3.51116],[1.21213,3.16435]],[[454.05997,85.98619],[-0.34305,-3.37115],[1.02791,10.10128]],[[455.01094,116.11037],[0.00758,-10.13332],[33.21569,2.58025]],[[551.56928,139.77912],[-30.26369,-13.79375],[15.24596,6.94891]],[[597.22773,161.51357],[-14.55961,-8.33101],[9.68695,5.54288]],[[624.16543,180.8054],[-8.28801,-7.24798],[6.68772,-8.08872]],[[643.64988,156.20187],[-6.3,8.36118],[-19.11464,-9.55765]]],&quot;closed&quot;:true}]}" fill="#ffffff"/><path d="M204.42741,115.39552c-1.11418,-0.05867 -2.36322,0.08239 -3.41188,-0.29861c-1.07287,-0.3898 -1.87794,-1.29963 -2.81705,-1.94852c0,0 -1.54207,-1.06678 -2.62133,0.5521c-1.07925,1.61888 0.53995,2.69523 0.53995,2.69523c1.2194,0.79012 2.28999,1.87889 3.65831,2.36768c1.5716,0.56141 6.64023,0.56524 8.37419,0.60415c3.97612,0.08923 8.29823,-0.09931 12.13016,-1.35881c3.84518,-1.26386 7.52716,-3.75732 10.66718,-6.21746c5.59457,-4.38322 10.21805,-8.51313 13.28647,-15.04714c0.96834,-2.06203 2.30143,-3.92057 2.82659,-6.1373c0.03542,-0.14951 0.27271,-2.34301 0.4577,-4.36542c12.48336,0.96536 24.93748,3.71038 36.30935,8.89351c5.79813,2.6427 11.82927,5.10216 17.37392,8.25647c3.59126,2.04304 6.91816,4.46491 9.99705,7.16449c-0.04136,0.04897 -0.08273,0.09802 -0.12412,0.14699c-3.51734,3.46975 -6.88663,7.31064 -10.64083,10.51853c-7.212,6.16252 -16.00945,12.26125 -24.49284,16.53494c-9.99552,5.03546 -21.63858,8.163 -32.52965,10.51015c-3.6865,0.79541 -7.51904,1.96333 -11.25908,2.43704c-10.08636,1.27753 -20.75305,0.59511 -30.90062,0.58886c-12.64785,-0.00779 -25.2215,-0.00904 -37.71932,-2.09201c-4.52686,-0.75436 -9.1702,-1.562 -13.79529,-2.55331c2.36605,-4.87659 5.26134,-9.63438 8.26942,-13.84149c4.26738,-5.97433 8.57129,-12.08916 13.72848,-17.3514c1.68483,-1.71916 3.67199,-3.11984 5.43757,-4.75597c3.15819,-2.92664 5.98618,-6.16527 9.43364,-8.78338c1.5979,-1.21349 3.26331,-2.36903 4.97579,-3.46239c1.74765,2.37024 3.75254,4.66864 5.46636,6.86713c2.76765,3.55033 6.38321,7.61165 10.57939,10.18844c-1.04716,-0.01386 -2.10847,-0.05508 -3.19952,-0.11253z" data-paper-data="{&quot;noHover&quot;:false,&quot;origItem&quot;:[&quot;Path&quot;,{&quot;applyMatrix&quot;:true,&quot;segments&quot;:[[[351.593,201.17881],[-2.69101,-0.03561],[-10.78346,-6.62191]],[[324.41203,174.97322],[7.11239,9.12374],[-4.40424,-5.64974]],[[310.54565,157.40989],[4.49115,6.09112],[-4.40079,2.80974]],[[297.76345,166.29719],[4.10633,-3.11846],[-8.8594,6.72808]],[[273.52616,188.84808],[8.11601,-7.52096],[-4.53723,4.20457]],[[259.55353,201.06076],[4.32974,-4.41794],[-13.25309,13.52305]],[[224.27203,245.6262],[10.96644,-15.35302],[-7.73026,10.81154]],[[203.01738,281.18281],[6.08035,-12.53201],[11.88569,2.54748]],[[238.46546,287.73564],[-11.63324,-1.93857],[32.11728,5.35288]],[[335.37353,293.07874],[-32.50282,-0.02001],[26.07751,0.01605]],[[414.71064,291.53991],[-25.92022,3.28304],[9.61127,-1.21736]],[[443.60954,285.28546],[-9.47366,2.04407],[27.9882,-6.03179]],[[527.15315,258.32932],[-25.68679,12.94028],[21.80085,-10.98266]],[[590.08797,215.87234],[-18.5336,15.83662],[9.64765,-8.24374]],[[617.43354,188.85495],[-9.03897,8.91666],[0.10638,-0.12585]],[[617.75255,188.47737],[-0.10629,0.12586],[-7.91222,-6.93746]],[[592.06361,170.07698],[9.22892,5.25026],[-14.24882,-8.10603]],[[547.4219,148.87853],[14.9002,6.79128],[-29.22374,-13.31976]],[[454.15812,126.07171],[32.08011,2.4808],[-0.4754,5.19726]],[[453.07887,137.11526],[0.09102,-0.38421],[-1.34957,5.69661]],[[445.71152,153.05818],[2.48848,-5.29907],[-7.88532,16.79132]],[[411.61362,191.74165],[14.37709,-11.26412],[-8.0693,6.32211]],[[384.30722,207.62803],[9.88144,-3.24789],[-9.84742,3.23671]],[[352.93516,211.11388],[10.21797,0.22931],[-4.456,-0.1]],[[331.41487,209.55873],[4.03874,1.44273],[-3.51635,-1.25612]],[[322.0139,203.46734],[3.13366,2.03046],[0,0]],[[320.62715,196.53359],[-2.7735,4.16025],[2.7735,-4.16025]],[[327.5609,195.14684],[0,0],[2.41335,1.66754]],[[334.80094,200.14945],[-2.75708,-1.00172],[2.69486,0.97912]],[[343.37058,200.89094],[-2.86325,-0.15076],[2.80381,0.14763]]],&quot;closed&quot;:true}]}" fill="#ffffff"/><path d="M286.35948,190.41387c0.7016,0.26506 0.43654,0.96666 0.43654,0.96666l-0.37253,0.98607c-3.12712,8.27743 -10.85921,16.42119 -18.34058,21.076c-4.21372,2.62172 -8.92105,5.2709 -13.93089,6.06188c-5.24607,0.82828 -11.35926,-0.04584 -16.64692,-0.31022c-8.673,-0.43365 -18.57099,-1.50185 -25.86855,-6.36689c0,0 -0.62404,-0.41603 -0.20801,-1.04006c0.41603,-0.62404 1.04006,-0.20801 1.04006,-0.20801c7.06106,4.70737 16.71812,5.69717 25.11141,6.11684c5.18068,0.25903 11.20087,1.13779 16.33808,0.3267c4.81433,-0.76011 9.32492,-3.33555 13.3724,-5.85384c7.20575,-4.48332 14.71664,-12.35673 17.7298,-20.33251l0.37253,-0.98607c0,0 0.26506,-0.7016 0.96666,-0.43654z" fill="#000000"/></g></g></svg>